<?xml version="1.0" standalone="no"?>
<!DOCTYPE svg PUBLIC "-//W3C//DTD SVG 20010904//EN"
 "http://www.w3.org/TR/2001/REC-SVG-20010904/DTD/svg10.dtd">
<svg version="1.0" xmlns="http://www.w3.org/2000/svg"
 width="700.000000pt" height="700.000000pt" viewBox="0 0 700.000000 700.000000"
 preserveAspectRatio="xMidYMid meet">
<metadata>
Created by potrace 1.11, written by Peter Selinger 2001-2013
</metadata>
<g transform="translate(0.000000,700.000000) scale(0.100000,-0.100000)"
fill="#000000" stroke="none">
<path d="M4912 6773 c-23 -126 -44 -239 -47 -253 -7 -34 -14 -69 -20 -105 -10
-55 -24 -130 -30 -155 -3 -14 -12 -63 -20 -110 -8 -47 -17 -96 -20 -110 -3
-14 -8 -41 -11 -60 -3 -19 -9 -51 -14 -70 -5 -19 -11 -51 -14 -70 -3 -19 -26
-142 -51 -274 -25 -131 -45 -242 -43 -247 7 -22 644 -649 658 -649 14 0 75 10
150 25 14 3 147 28 295 56 149 28 281 52 295 55 14 3 95 18 180 34 85 16 227
43 315 59 88 17 174 33 190 36 17 3 66 12 110 20 44 8 94 19 110 24 30 8 30 8
-35 38 -165 77 -576 286 -593 301 -32 28 -45 64 -57 153 -6 46 -13 102 -16
124 -3 22 -7 51 -9 65 -2 14 -6 45 -9 70 -7 59 -13 101 -31 240 -8 63 -18 138
-21 165 -4 28 -8 52 -10 54 -5 5 -18 8 -84 16 -25 3 -58 7 -75 9 -122 17 -348
46 -384 51 -23 3 -55 7 -70 9 -14 3 -51 8 -81 11 -115 13 -148 24 -182 61 -9
11 -87 162 -172 337 -86 174 -157 317 -159 317 -2 0 -22 -102 -45 -227z"/>
<path d="M3277 5710 c-146 -37 -268 -114 -449 -282 -110 -102 -1165 -1159
-1234 -1236 -211 -236 -284 -433 -252 -679 24 -179 106 -326 302 -538 86 -92
1213 -1220 1276 -1276 158 -142 278 -217 400 -251 104 -30 136 -34 230 -32
165 4 303 54 440 157 119 90 161 132 762 732 604 604 616 616 699 720 142 176
190 293 196 472 3 122 -5 180 -43 287 -41 118 -126 241 -277 401 -98 104
-1097 1104 -1212 1213 -156 148 -289 242 -406 286 -85 32 -114 37 -244 42 -87
3 -127 0 -188 -16z"/>
<path d="M1700 2429 c-19 -4 -51 -11 -70 -13 -69 -11 -106 -17 -140 -26 -19
-5 -53 -12 -75 -16 -22 -3 -110 -19 -195 -36 -85 -16 -166 -31 -180 -34 -14
-2 -41 -7 -60 -11 -19 -4 -42 -8 -50 -9 -8 -1 -145 -27 -305 -58 -159 -30
-303 -58 -320 -61 -35 -6 -60 -11 -132 -25 -28 -6 -61 -12 -72 -13 -12 -1 -21
-3 -21 -5 0 -2 138 -71 308 -154 169 -83 319 -159 335 -170 35 -25 55 -63 62
-124 4 -27 8 -60 10 -74 2 -14 6 -45 10 -70 3 -25 8 -56 10 -70 2 -14 7 -50
10 -80 4 -30 8 -66 10 -80 6 -37 13 -90 30 -230 18 -145 22 -160 39 -160 11 0
183 -22 276 -35 19 -3 55 -7 80 -10 25 -3 56 -8 70 -10 14 -2 48 -7 75 -10 61
-6 131 -15 165 -21 14 -2 45 -6 70 -10 53 -6 100 -26 122 -51 9 -10 88 -162
174 -338 169 -343 162 -334 178 -228 3 21 8 49 11 63 3 14 10 52 15 85 6 33
24 128 40 210 16 83 31 161 33 175 3 14 17 86 31 160 14 74 28 149 31 165 2
17 7 41 10 55 3 14 9 50 15 80 15 82 19 100 24 118 3 9 8 37 11 62 4 24 8 47
10 50 2 3 6 23 9 45 16 96 18 109 22 129 15 68 26 126 31 160 l5 39 -323 323
c-178 178 -331 324 -339 323 -8 -1 -31 -5 -50 -10z"/>
</g>
</svg>
