<?xml version="1.0" standalone="no"?>
<!DOCTYPE svg PUBLIC "-//W3C//DTD SVG 20010904//EN"
 "http://www.w3.org/TR/2001/REC-SVG-20010904/DTD/svg10.dtd">
<svg version="1.0" xmlns="http://www.w3.org/2000/svg"
 width="360.000000pt" height="360.000000pt" viewBox="0 0 360.000000 360.000000"
 preserveAspectRatio="xMidYMid meet">
<metadata>
Created by potrace 1.11, written by Peter Selinger 2001-2013
</metadata>
<g transform="translate(0.000000,360.000000) scale(0.100000,-0.100000)"
fill="#000000" stroke="none">
<path d="M2885 2852 c-109 -199 -208 -299 -405 -407 -58 -31 -106 -58 -108
-60 -3 -2 179 -104 203 -114 17 -7 108 -83 147 -124 60 -60 112 -135 163 -232
27 -49 51 -93 54 -97 4 -4 33 41 65 100 116 211 214 306 444 427 l73 38 -63
35 c-165 91 -207 120 -285 198 -51 52 -100 114 -132 168 -28 48 -51 90 -51 94
0 4 -11 24 -23 44 l-23 37 -59 -107z"/>
<path d="M1049 2883 c-136 -255 -174 -316 -254 -411 -149 -178 -254 -261 -495
-393 -104 -57 -190 -107 -190 -110 0 -3 81 -50 180 -105 210 -115 278 -163
404 -288 140 -138 167 -178 369 -546 11 -19 21 -39 24 -43 4 -7 163 267 163
280 0 1 14 26 32 55 71 117 238 299 360 390 58 44 123 83 311 186 l128 70 -98
55 c-54 30 -129 72 -168 92 -250 136 -448 336 -589 598 -122 227 -128 237
-136 237 -3 0 -21 -30 -41 -67z"/>
<path d="M2164 1393 c-39 -72 -89 -138 -139 -186 -31 -31 -109 -87 -120 -87
-3 0 -28 -13 -56 -29 l-50 -28 63 -33 c85 -44 146 -89 199 -149 61 -68 60 -67
104 -148 l39 -72 50 89 c74 129 155 210 266 265 30 15 61 32 68 38 14 11 6 18
-68 58 -123 65 -215 161 -281 291 -16 32 -31 58 -34 58 -2 0 -21 -30 -41 -67z"/>
</g>
</svg>
