<?xml version="1.0" encoding="UTF-8"?>
<svg width="25px" height="30px" viewBox="0 0 25 30" version="1.1" xmlns="http://www.w3.org/2000/svg" xmlns:xlink="http://www.w3.org/1999/xlink">
    <!-- Generator: Sketch 46 (44423) - http://www.bohemiancoding.com/sketch -->
    <title>apple</title>
    <desc>Created with Sketch.</desc>
    <defs></defs>
    <g id="Website" stroke="none" stroke-width="1" fill="none" fill-rule="evenodd">
        <g id="Website---Desktop-Copy-3" transform="translate(-577.000000, -440.000000)" fill="#FFFFFF">
            <g id="Header">
                <g id="SMS-form" transform="translate(289.000000, 419.000000)">
                    <g id="Form">
                        <g id="Get-the-App" transform="translate(228.000000, 10.000000)">
                            <g id="Group-11" transform="translate(17.000000, 11.000000)">
                                <path d="M63.7026295,15.4681979 C63.7415771,19.8724676 67.5744741,21.3283963 67.6202948,21.3432178 C67.5973845,21.4458283 67.0200443,23.4467326 65.5824215,25.4738596 C64.3819206,27.2615621 63.1241439,29.0093606 61.1263637,29.0390036 C59.1858593,29.0846083 58.5329151,27.9034477 56.3071772,27.9034477 C54.0608201,27.9034477 53.3654917,29.0093606 51.504028,29.0846083 C49.6013257,29.1541554 48.1476657,27.1783336 46.9036351,25.4065927 C44.4167195,21.7912836 42.4807972,15.2185124 45.0765368,10.7458357 C46.3343136,8.55225176 48.6276369,7.13964752 51.0790415,7.10202368 C52.9840349,7.06325972 54.7515663,8.38237441 55.9222838,8.38237441 C57.070091,8.38237441 59.2557358,6.80445329 61.5089661,7.04045739 C62.4517259,7.06782018 65.1345247,7.41099522 66.8653996,9.92267169 C66.7256467,10.0059002 63.6694096,11.7936027 63.7026295,15.4681979 Z M60.0369778,4.66217455 C58.9922671,5.88893981 57.320959,6.82725562 55.6931806,6.70640328 C55.4801146,5.05095424 56.3048862,3.2906145 57.2281722,2.21662483 C58.2717374,0.997840385 60.083944,0.0640850406 61.5330219,0.000238521308 C61.7231776,1.72067419 61.038159,3.4160273 60.0369778,4.66217455 Z" id="apple"></path>
                            </g>
                        </g>
                    </g>
                </g>
            </g>
        </g>
    </g>
</svg>