<?xml version="1.0" encoding="UTF-8"?>
<svg width="36px" height="36px" viewBox="0 0 36 36" version="1.1" xmlns="http://www.w3.org/2000/svg" xmlns:xlink="http://www.w3.org/1999/xlink">
    <!-- Generator: Sketch 46 (44423) - http://www.bohemiancoding.com/sketch -->
    <title>facebook</title>
    <desc>Created with Sketch.</desc>
    <defs></defs>
    <g id="Website" stroke="none" stroke-width="1" fill="none" fill-rule="evenodd">
        <g id="Website---Desktop-Copy-3" transform="translate(-1109.000000, -3158.000000)" fill="#F12B4C">
            <g id="Footer" transform="translate(291.000000, 3154.000000)">
                <g id="Social" transform="translate(712.000000, 4.000000)">
                    <path d="M129.529412,35.405893 C132.775988,35.4047315 134.478979,35.3788212 136.306606,34.8008008 C138.395557,34.0407531 140.040753,32.3955568 140.801096,30.3066059 C141.405947,28.3932095 141.405947,26.616421 141.405947,23.0619589 L141.405947,12.3439885 C141.405947,8.78982151 141.405947,7.01244295 140.801096,5.09934158 C140.040753,3.01039068 138.395557,1.36519432 136.306606,0.604851603 C134.393209,0 132.616421,0 129.061959,0 L118.343989,0 C114.789526,0 113.012443,0 111.099342,0.604851603 C109.010391,1.36519432 107.365194,3.01039068 106.604852,5.09934158 C106,7.01244295 106,8.78982151 106,12.3439885 L106,23.0619589 C106,26.616421 106,28.3932095 106.604852,30.3066059 C107.365194,32.3955568 109.010391,34.0407531 111.099342,34.8008008 C113.012443,35.4059475 114.789526,35.4059475 118.343989,35.4059475 L123.647059,35.4059475 L123.647059,22.3235294 L119.428309,22.3235294 L119.428309,17.1764706 L123.647059,17.1764706 L123.647059,13.3713235 C123.647059,8.8125 126.808824,6.33088235 130.880515,6.33088235 C132.829044,6.33088235 134.924632,6.47794118 135.411765,6.54227941 L135.411765,11.3033088 L132.167279,11.3033088 C129.952206,11.3033088 129.529412,12.3511029 129.529412,13.8952206 L129.529412,17.1764706 L134.805147,17.1764706 L134.115809,22.3235294 L129.529412,22.3235294 L129.529412,35.405893 Z" id="facebook"></path>
                </g>
            </g>
        </g>
    </g>
</svg>