<?xml version="1.0" encoding="UTF-8"?>
<svg width="36px" height="36px" viewBox="0 0 36 36" version="1.1" xmlns="http://www.w3.org/2000/svg" xmlns:xlink="http://www.w3.org/1999/xlink">
    <!-- Generator: Sketch 46 (44423) - http://www.bohemiancoding.com/sketch -->
    <title>instagram</title>
    <desc>Created with Sketch.</desc>
    <defs></defs>
    <g id="Website" stroke="none" stroke-width="1" fill="none" fill-rule="evenodd">
        <g id="Website---Desktop-Copy-3" transform="translate(-1056.000000, -3158.000000)" fill="#F12B4C">
            <g id="Footer" transform="translate(291.000000, 3154.000000)">
                <g id="Social" transform="translate(712.000000, 4.000000)">
                    <path d="M65.3439885,0 L76.0619589,0 C79.616421,0 81.3932095,0 83.3066059,0.604851603 C85.3955568,1.36519432 87.0407531,3.01039068 87.8010959,5.09934158 C88.4059475,7.01244295 88.4059475,8.78982151 88.4059475,12.3439885 L88.4059475,23.0619589 C88.4059475,26.616421 88.4059475,28.3932095 87.8010959,30.3066059 C87.0407531,32.3955568 85.3955568,34.0407531 83.3066059,34.8008008 C81.3932095,35.4059475 79.616421,35.4059475 76.0619589,35.4059475 L65.3439885,35.4059475 C61.7895265,35.4059475 60.0124429,35.4059475 58.0993416,34.8008008 C56.0103907,34.0407531 54.3651943,32.3955568 53.6048516,30.3066059 C53,28.3932095 53,26.616421 53,23.0619589 L53,12.3439885 C53,8.78982151 53,7.01244295 53.6048516,5.09934158 C54.3651943,3.01039068 56.0103907,1.36519432 58.0993416,0.604851603 C60.0124429,0 61.7895265,0 65.3439885,0 Z M70.9999714,6.19464712 C67.154987,6.19464712 66.6995862,6.2092803 65.1811071,6.27855931 C63.7771785,6.34263667 63.0147094,6.57722495 62.5072922,6.77437287 C61.8351373,7.03559814 61.3553859,7.34769659 60.8515127,7.85156984 C60.3476394,8.35544308 60.035541,8.83519444 59.7743729,9.50729218 C59.5771678,10.0147666 59.3425795,10.7772357 59.2785022,12.1812215 C59.2092231,13.6996433 59.19459,14.1550442 59.19459,18.0000286 C59.19459,21.845013 59.2092231,22.3004139 59.2785022,23.8188928 C59.3425795,25.2228215 59.5771678,25.9852906 59.7743729,26.4927649 C60.035541,27.1648627 60.3476394,27.6446141 60.8515127,28.1484873 C61.3553859,28.6523605 61.8351373,28.964459 62.5072922,29.2256271 C63.0147094,29.4228322 63.7771785,29.6574205 65.1811643,29.7214978 C66.6993575,29.7907768 67.1547583,29.80541 70.9999714,29.80541 C74.8451845,29.80541 75.3005853,29.7907768 76.8187786,29.7214978 C78.2227644,29.6574205 78.9852335,29.4228322 79.4927078,29.2256271 C80.1648055,28.964459 80.6445569,28.6523605 81.1484302,28.1484873 C81.6523034,27.6446141 81.9644019,27.1648627 82.22557,26.4927649 C82.422775,25.9852906 82.6573633,25.2228215 82.7214407,23.8188357 C82.7907197,22.3004139 82.8053529,21.845013 82.8053529,18.0000286 C82.8053529,14.1550442 82.7907197,13.6996433 82.7214407,12.1811643 C82.6573633,10.7772357 82.422775,10.0147666 82.22557,9.50729218 C81.9644019,8.83519444 81.6523034,8.35544308 81.1484302,7.85156984 C80.6445569,7.34769659 80.1648055,7.03559814 79.4927078,6.77437287 C78.9852335,6.57722495 78.2227644,6.34263667 76.8187786,6.27855931 C75.3003567,6.2092803 74.8449558,6.19464712 70.9999714,6.19464712 Z M70.9999714,10.60541 C75.0838884,10.60541 78.39459,13.9161116 78.39459,18.0000286 C78.39459,22.0839455 75.0838884,25.3946472 70.9999714,25.3946472 C66.9160545,25.3946472 63.6053529,22.0839455 63.6053529,18.0000286 C63.6053529,13.9161116 66.9160545,10.60541 70.9999714,10.60541 Z M80.3187084,10.2652592 C80.3187084,11.1931062 79.5665831,11.945287 78.6387361,11.945287 C77.7108891,11.945287 76.9587084,11.1931062 76.9587084,10.2652592 C76.9587084,9.33741218 77.7108891,8.58528702 78.6387361,8.58528702 C79.5665831,8.58528702 80.3187084,9.33741218 80.3187084,10.2652592 Z M70.9999714,22.8000572 C73.650922,22.8000572 75.8,20.6509791 75.8,18.0000286 C75.8,15.349078 73.650922,13.2 70.9999714,13.2 C68.3490209,13.2 66.1999428,15.349078 66.1999428,18.0000286 C66.1999428,20.6509791 68.3490209,22.8000572 70.9999714,22.8000572 Z" id="instagram"></path>
                </g>
            </g>
        </g>
    </g>
</svg>