<?xml version="1.0" encoding="UTF-8"?>
<svg width="30px" height="30px" viewBox="0 0 30 30" version="1.1" xmlns="http://www.w3.org/2000/svg" xmlns:xlink="http://www.w3.org/1999/xlink">
    <!-- Generator: Sketch 43.2 (39069) - http://www.bohemiancoding.com/sketch -->
    <title>Layer_1</title>
    <desc>Created with Sketch.</desc>
    <defs></defs>
    <g id="Page-1" stroke="none" stroke-width="1" fill="none" fill-rule="evenodd">
        <g id="Artboard" transform="translate(-332.000000, -22.000000)" fill-rule="nonzero" fill="#FFFFFF">
            <g id="ChewTaffy" transform="translate(40.000000, 22.000000)">
                <g id="social-instagram" transform="translate(292.000000, 0.000000)">
                    <g id="Layer_1">
                        <circle id="Oval" cx="14.961039" cy="14.948026" r="6.23376623"></circle>
                        <g id="Group">
                            <path d="M8.86792208,8.79638961 C10.5162857,7.14802597 12.7078442,6.23049351 15.038961,6.23049351 C17.3700779,6.23049351 19.5616364,7.15285714 21.21,8.80122078 C22.2558701,9.84709091 23.0030649,11.1038961 23.4098961,12.5064935 L29.961039,12.5064935 L29.961039,3.7012987 C29.961039,1.63558442 28.3644156,0.038961039 26.2987013,0.038961039 L3.85714286,0.038961039 C1.79142857,0.038961039 0.038961039,1.63558442 0.038961039,3.7012987 L0.038961039,12.5064935 L6.66794805,12.5064935 C7.07485714,11.1038961 7.82205195,9.84225974 8.86792208,8.79638961 Z M27.4675325,6.52207792 C27.4675325,7.07290909 27.021039,7.51948052 26.4701299,7.51948052 L23.4779221,7.51948052 C22.9270909,7.51948052 22.4805195,7.07298701 22.4805195,6.52207792 L22.4805195,3.52987013 C22.4805195,2.97903896 22.927013,2.53246753 23.4779221,2.53246753 L26.4701299,2.53246753 C27.020961,2.53246753 27.4675325,2.97896104 27.4675325,3.52987013 L27.4675325,6.52207792 Z" id="Shape"></path>
                            <path d="M21.21,21.1386234 C19.5616364,22.786987 17.3700779,23.685039 15.038961,23.685039 C12.7078442,23.685039 10.5162857,22.7918961 8.86792208,21.1435325 C7.2225974,19.4982078 6.31527273,17.2597403 6.31184416,15 L0.038961039,15 L0.038961039,26.1428571 C0.038961039,28.2085714 1.79142857,29.961039 3.85714286,29.961039 L26.2987013,29.961039 C28.3644156,29.961039 29.961039,28.2085714 29.961039,26.1428571 L29.961039,15 L23.7660779,15 C23.7627273,17.2597403 22.8554026,19.4932987 21.21,21.1386234 Z" id="Shape"></path>
                        </g>
                    </g>
                </g>
            </g>
        </g>
    </g>
</svg>