<?xml version="1.0" encoding="UTF-8"?>
<svg width="75px" height="92px" viewBox="0 0 75 92" version="1.1" xmlns="http://www.w3.org/2000/svg" xmlns:xlink="http://www.w3.org/1999/xlink">
    <!-- Generator: Sketch 41.2 (35397) - http://www.bohemiancoding.com/sketch -->
    <title>logo</title>
    <desc>Created with Sketch.</desc>
    <defs></defs>
    <g id="iPhone-App-v2" stroke="none" stroke-width="1" fill="none" fill-rule="evenodd">
        <g id="Onboarding-1" transform="translate(-151.000000, -227.000000)" fill="#FFFFFF">
            <g id="Group-4" transform="translate(123.000000, 209.000000)">
                <g id="logo" transform="translate(28.000000, 18.000000)">
                    <path d="M35.162277,16.7729358 C31.5421184,14.7909339 26.9561182,10.2105247 24.9797072,6.58477505 L21.3763215,0 L17.7729358,6.58477505 C15.7909339,10.2049337 11.2091269,14.7909339 7.58477505,16.7729358 L1,20.3763215 L7.58477505,23.9797072 C11.2035359,25.9617091 15.7909339,30.5435161 17.7729358,34.167868 L21.3763215,40.752643 L24.9797072,34.167868 C26.9617091,30.5491071 31.5421184,25.9617091 35.162277,23.9797072 L41.7470521,20.3763215 L35.162277,16.7729358 Z M57.3570643,19.8465763 L59.4480903,23.6749989 L61.5391163,19.8465763 C62.6908579,17.7443683 65.350766,15.080267 67.4585649,13.9285254 L71.2799988,11.8374994 L67.4585649,9.74647345 C65.3563569,8.59473186 62.6908579,5.93482379 61.5391163,3.82702485 L59.4480903,0 L57.3570643,3.82702485 C56.2053227,5.92923281 53.5454147,8.59473186 51.4390135,9.74647345 L47.6161818,11.8374994 L51.4390135,13.9285254 C53.5412214,15.080267 56.2053227,17.7401751 57.3570643,19.8465763 L57.3570643,19.8465763 Z M45.6998739,44.5866566 C46.5077703,43.112036 48.3751572,41.2446492 49.8497778,40.4367527 L52.530652,38.9677231 L49.8497778,37.5042845 C48.3751572,36.6963881 46.5077703,34.8290012 45.6998739,33.3543806 L44.2364353,30.6735064 L42.7674057,33.3543806 C41.9595092,34.8290012 40.0921224,36.6963881 38.6188995,37.5042845 L35.9380253,38.9677231 L38.6188995,40.4367527 C40.0921224,41.2446492 41.9595092,43.112036 42.7674057,44.5866566 L44.2364353,47.2675309 L45.6998739,44.5866566 Z" id="Fill-19"></path>
                    <path d="M8.7829999,69.5 L8.7829999,76.34 C8.7829999,77.1800042 8.94499828,77.8099979 9.2689999,78.23 C9.59300152,78.6500021 10.1749957,78.86 11.0149999,78.86 C11.3030013,78.86 11.6089983,78.8360002 11.9329999,78.788 C12.2570015,78.7399998 12.5269988,78.6680005 12.7429999,78.572 L12.8149999,82.892 C12.4069979,83.0360007 11.891003,83.1619995 11.2669999,83.27 C10.6429968,83.3780005 10.019003,83.432 9.3949999,83.432 C8.1949939,83.432 7.18700398,83.2820015 6.3709999,82.982 C5.55499582,82.6819985 4.90100236,82.2500028 4.4089999,81.686 C3.91699744,81.1219972 3.56300098,80.4500039 3.3469999,79.67 C3.13099882,78.8899961 3.0229999,78.0200048 3.0229999,77.06 L3.0229999,69.5 L0.142999905,69.5 L0.142999905,65.072 L2.9869999,65.072 L2.9869999,60.356 L8.7829999,60.356 L8.7829999,65.072 L12.9949999,65.072 L12.9949999,69.5 L8.7829999,69.5 Z M25.0609999,75.188 L24.3049999,75.188 C23.6569967,75.188 23.0030032,75.2179997 22.3429999,75.278 C21.6829966,75.3380003 21.0950025,75.4519992 20.5789999,75.62 C20.0629974,75.7880008 19.6370016,76.0339984 19.3009999,76.358 C18.9649983,76.6820016 18.7969999,77.1079974 18.7969999,77.636 C18.7969999,77.9720017 18.8749992,78.2599988 19.0309999,78.5 C19.1870007,78.7400012 19.3849987,78.9319993 19.6249999,79.076 C19.8650011,79.2200007 20.1409984,79.3219997 20.4529999,79.382 C20.7650015,79.4420003 21.0649985,79.472 21.3529999,79.472 C22.5530059,79.472 23.4709968,79.1420033 24.1069999,78.482 C24.7430031,77.8219967 25.0609999,76.9280056 25.0609999,75.8 L25.0609999,75.188 Z M14.2249999,67.52 C15.2810052,66.511995 16.5109929,65.7560025 17.9149999,65.252 C19.319007,64.7479975 20.7529926,64.496 22.2169999,64.496 C23.7290075,64.496 25.0069947,64.6819981 26.0509999,65.054 C27.0950052,65.4260019 27.9409967,66.0019961 28.5889999,66.782 C29.2370032,67.5620039 29.7109984,68.5459941 30.0109999,69.734 C30.3110014,70.9220059 30.4609999,72.3319918 30.4609999,73.964 L30.4609999,83 L25.0609999,83 L25.0609999,81.092 L24.9529999,81.092 C24.4969977,81.8360037 23.8070046,82.411998 22.8829999,82.82 C21.9589953,83.228002 20.9570053,83.432 19.8769999,83.432 C19.1569963,83.432 18.4130038,83.336001 17.6449999,83.144 C16.8769961,82.951999 16.1750031,82.6400022 15.5389999,82.208 C14.9029968,81.7759978 14.381002,81.2000036 13.9729999,80.48 C13.5649979,79.7599964 13.3609999,78.8720053 13.3609999,77.816 C13.3609999,76.5199935 13.7149964,75.476004 14.4229999,74.684 C15.1310035,73.891996 16.0429944,73.2800022 17.1589999,72.848 C18.2750055,72.4159978 19.5169931,72.1280007 20.8849999,71.984 C22.2530068,71.8399993 23.5849935,71.768 24.8809999,71.768 L24.8809999,71.48 C24.8809999,70.5919956 24.5690031,69.9380021 23.9449999,69.518 C23.3209968,69.0979979 22.5530045,68.888 21.6409999,68.888 C20.8009957,68.888 19.9910038,69.0679982 19.2109999,69.428 C18.430996,69.7880018 17.7650027,70.2199975 17.2129999,70.724 L14.2249999,67.52 Z M44.687,60.14 C44.4709989,60.0679996 44.2190014,60.0080002 43.931,59.96 C43.6429985,59.9119998 43.3550014,59.888 43.067,59.888 C42.5149972,59.888 42.0710017,59.983999 41.735,60.176 C41.3989983,60.368001 41.1350009,60.6259984 40.943,60.95 C40.750999,61.2740016 40.6190003,61.639998 40.547,62.048 C40.4749996,62.456002 40.439,62.863998 40.439,63.272 L40.439,65.072 L44.435,65.072 L44.435,69.5 L40.439,69.5 L40.439,83 L34.535,83 L34.535,69.5 L31.259,69.5 L31.259,65.072 L34.535,65.072 L34.535,63.344 C34.535,62.2399945 34.6549988,61.190005 34.895,60.194 C35.1350012,59.197995 35.548997,58.3220038 36.137,57.566 C36.7250029,56.8099962 37.516995,56.2100022 38.513,55.766 C39.509005,55.3219978 40.7509925,55.1 42.239,55.1 C42.7430025,55.1 43.2409975,55.1299997 43.733,55.19 C44.2250024,55.2500003 44.6749979,55.3399994 45.083,55.46 L44.687,60.14 Z M55.421,60.14 C55.2049989,60.0679996 54.9530015,60.0080002 54.665,59.96 C54.3769986,59.9119998 54.0890015,59.888 53.801,59.888 C53.2489973,59.888 52.8050017,59.983999 52.469,60.176 C52.1329983,60.368001 51.869001,60.6259984 51.677,60.95 C51.4849991,61.2740016 51.3530004,61.639998 51.281,62.048 C51.2089997,62.456002 51.173,62.863998 51.173,63.272 L51.173,65.072 L55.169,65.072 L55.169,69.5 L51.173,69.5 L51.173,83 L45.269,83 L45.269,69.5 L41.993,69.5 L41.993,65.072 L45.269,65.072 L45.269,63.344 C45.269,62.2399945 45.3889988,61.190005 45.629,60.194 C45.8690012,59.197995 46.2829971,58.3220038 46.871,57.566 C47.459003,56.8099962 48.250995,56.2100022 49.247,55.766 C50.243005,55.3219978 51.4849926,55.1 52.973,55.1 C53.4770025,55.1 53.9749976,55.1299997 54.467,55.19 C54.9590025,55.2500003 55.408998,55.3399994 55.817,55.46 L55.421,60.14 Z M66.2270001,85.7 C65.8669983,86.6360047 65.4650023,87.4699963 65.0210001,88.202 C64.5769978,88.9340037 64.0490031,89.5579974 63.4370001,90.074 C62.824997,90.5900026 62.1050042,90.9799987 61.2770001,91.244 C60.4489959,91.5080013 59.4710057,91.64 58.3430001,91.64 C57.7909973,91.64 57.221003,91.6040004 56.6330001,91.532 C56.0449971,91.4599996 55.5350022,91.3640006 55.1030001,91.244 L55.7510001,86.276 C56.0390015,86.3720005 56.3569983,86.4499997 56.7050001,86.51 C57.0530018,86.5700003 57.3709986,86.6 57.6590001,86.6 C58.5710046,86.6 59.230998,86.3900021 59.6390001,85.97 C60.0470021,85.5499979 60.3949986,84.9560038 60.6830001,84.188 L61.2590001,82.712 L53.7710001,65.072 L60.3230001,65.072 L64.3190001,76.592 L64.4270001,76.592 L67.9910001,65.072 L74.2550001,65.072 L66.2270001,85.7 Z" id="taffy"></path>
                </g>
            </g>
        </g>
    </g>
</svg>