<?xml version="1.0" encoding="UTF-8"?>
<svg width="213px" height="94px" viewBox="0 0 213 94" version="1.1" xmlns="http://www.w3.org/2000/svg" xmlns:xlink="http://www.w3.org/1999/xlink">
    <!-- Generator: Sketch 46 (44423) - http://www.bohemiancoding.com/sketch -->
    <title>logo</title>
    <desc>Created with Sketch.</desc>
    <defs></defs>
    <g id="Website" stroke="none" stroke-width="1" fill="none" fill-rule="evenodd">
        <g id="Website---Desktop-Copy-3" transform="translate(-395.000000, -197.000000)" fill="#FFFFFF">
            <g id="Header">
                <g id="Content-v1" transform="translate(270.000000, 171.000000)">
                    <g id="Logo">
                        <g id="Brand-/-Logo-/-White" transform="translate(119.000000, 17.000000)">
                            <g id="Logo" transform="translate(6.776119, 8.437500)">
                                <path d="M171.554403,70.74 L152.069671,24.63075 L175.48794,24.63075 L182.623194,49.872375 L182.989104,49.872375 L189.301059,24.63075 L211.896029,24.63075 L192.136865,75.4785 C190.978143,78.4552649 189.666977,81.1130508 188.203328,83.4519375 C186.739679,85.7908242 185.032114,87.7803668 183.080582,89.420625 C181.12905,91.0608832 178.826886,92.3062457 176.174022,93.15675 C173.521158,94.0072543 170.426196,94.4325 166.889044,94.4325 C165.791308,94.4325 164.663095,94.386938 163.504373,94.2958125 C162.345651,94.204687 161.232684,94.0831883 160.16544,93.9313125 C159.098196,93.7794367 158.107198,93.6275633 157.192418,93.4756875 C156.277637,93.3238117 155.515331,93.1567509 154.905477,92.9745 L157.558328,75.66075 C158.351138,75.9645015 159.311643,76.2226864 160.439873,76.4353125 C161.568102,76.6479386 162.589592,76.75425 163.504373,76.75425 C165.821817,76.75425 167.544628,76.2834422 168.672858,75.3418125 C169.801087,74.4001828 170.639624,73.2003823 171.188492,71.742375 L171.554403,70.74 Z" id="Path"></path>
                                <path d="M158.615403,18.06975 C158.066534,17.8267488 157.426197,17.6293133 156.694373,17.4774375 C155.962548,17.3255617 155.230735,17.249625 154.49891,17.249625 C152.425407,17.249625 150.977026,17.8874936 150.153724,19.16325 C149.330421,20.4390064 148.918776,22.0488653 148.918776,23.992875 L148.918776,24.63075 L159.072791,24.63075 L164.15488,39.666375 L148.918776,39.666375 L148.918776,72.5625 L127.878925,72.5625 L127.878925,39.666375 L119.64594,39.666375 L119.64594,24.63075 L127.878925,24.63075 L127.878925,23.53725 C127.878925,20.5604851 128.229586,17.7052637 128.930918,14.9715 C129.632249,12.2377363 130.836693,9.82294798 132.544283,7.7270625 C134.251874,5.63117702 136.554037,3.97575608 139.450843,2.76075 C142.347649,1.54574393 145.99147,0.93825 150.382418,0.93825 C151.785081,0.93825 153.416416,1.04456144 155.27647,1.2571875 C157.136524,1.46981356 158.706874,1.81912257 159.987567,2.305125 L158.615403,18.06975 Z" id="Path"></path>
                                <path d="M123.670955,18.06975 C123.122087,17.8267488 122.48175,17.6293133 121.749925,17.4774375 C121.018101,17.3255617 120.286287,17.249625 119.554462,17.249625 C117.48096,17.249625 116.032579,17.8874936 115.209276,19.16325 C114.385973,20.4390064 113.974328,22.0488653 113.974328,23.992875 L113.974328,24.63075 L124.128343,24.63075 L124.128343,39.666375 L113.974328,39.666375 L113.974328,72.5625 L92.9344774,72.5625 L92.9344774,39.666375 L84.7014923,39.666375 L84.7014923,24.63075 L92.9344774,24.63075 L92.9344774,23.53725 C92.9344774,20.5604851 93.2851381,17.7052637 93.9864699,14.9715 C94.6878018,12.2377363 95.892245,9.82294798 97.5998356,7.7270625 C99.3074262,5.63117702 101.60959,3.97575608 104.506395,2.76075 C107.403201,1.54574393 111.047023,0.93825 115.43797,0.93825 C116.840634,0.93825 118.471968,1.04456144 120.332022,1.2571875 C122.192076,1.46981356 123.762426,1.81912257 125.043119,2.305125 L123.670955,18.06975 Z" id="Path"></path>
                                <path d="M64.9457163,42.12675 C64.9457163,40.6687427 64.4425945,39.590441 63.4363357,38.8918125 C62.430077,38.193184 61.1036648,37.843875 59.4570596,37.843875 C57.5055275,37.843875 55.6607474,38.2539334 53.9226641,39.0740625 C52.1845808,39.8941916 50.644723,40.8509945 49.3030447,41.9445 L38.7831193,31.55625 C41.7104175,28.761736 45.186532,26.6051326 49.2115671,25.086375 C53.2366021,23.5676174 57.3835457,22.80825 61.6525223,22.80825 C66.2264258,22.80825 70.0074626,23.4461186 72.9957462,24.721875 C75.9840298,25.9976314 78.3471778,27.7593638 80.0852611,30.007125 C81.8233444,32.2548862 83.0430337,34.8671101 83.7443656,37.843875 C84.4456974,40.8206399 84.7963581,43.9796083 84.7963581,47.320875 L84.7963581,72.5625 L65.6775372,72.5625 L65.6775372,68.73525 L65.494582,68.73525 C64.2748744,70.5577591 62.5368171,71.8638711 60.2803581,72.653625 C58.0238991,73.4433789 55.8284583,73.83825 53.69397,73.83825 C51.8034233,73.83825 49.8671665,73.5648777 47.8851417,73.018125 C45.9031169,72.4713723 44.1040751,71.5905061 42.4879626,70.3755 C40.87185,69.1604939 39.5454379,67.5810097 38.5086865,65.637 C37.471935,63.6929903 36.9535671,61.2933893 36.9535671,58.438125 C36.9535671,55.0968583 37.8225957,52.378323 39.560679,50.2824375 C41.2987623,48.186552 43.5094492,46.5463184 46.1928059,45.3616875 C48.8761626,44.1770566 51.8796475,43.3721271 55.2033506,42.946875 C58.5270538,42.5216229 61.7744766,42.309 64.9457163,42.309 L64.9457163,42.12675 Z M65.1286715,52.69725 C62.0184172,52.69725 59.5180541,53.0313717 57.6275074,53.699625 C55.7369606,54.3678783 54.7917014,55.6132409 54.7917014,57.43575 C54.7917014,58.1040033 54.9441626,58.6659352 55.2490894,59.1215625 C55.5540163,59.5771898 55.9504154,59.9568735 56.4382984,60.260625 C56.9261814,60.5643765 57.4597955,60.7921867 58.0391566,60.9440625 C58.6185177,61.0959383 59.1521318,61.171875 59.6400148,61.171875 C61.6525323,61.171875 63.2686207,60.5340064 64.4883283,59.25825 C65.7080358,57.9824936 66.3178805,56.34226 66.3178805,54.3375 L66.3178805,52.69725 L65.1286715,52.69725 Z" id="Combined-Shape"></path>
                                <path d="M25.7966866,73.83825 C19.3322363,73.83825 14.5449558,72.4562013 11.4347015,69.6920625 C8.32444714,66.9279237 6.76934328,62.6299042 6.76934328,56.797875 L6.76934328,39.666375 L0,39.666375 L0,24.63075 L6.67786567,24.63075 L6.67786567,13.878 L27.1688507,13.878 L27.1688507,24.63075 L37.5972985,24.63075 L37.5972985,39.666375 L27.1688507,39.666375 L27.1688507,52.423875 C27.1688507,54.7323865 27.6719726,56.2966834 28.6782313,57.1168125 C29.6844901,57.9369416 31.0718867,58.347 32.8404627,58.347 C33.5113019,58.347 34.2126232,58.2862506 34.9444478,58.16475 C35.6762723,58.0432494 37.59462,57.2383131 38.0215177,57.1168125 L44.2441557,69.6920625 C43.1464188,70.1780649 34.0449278,73.0788735 32.062903,73.382625 C30.0808781,73.6863765 27.9921602,73.83825 25.7966866,73.83825 Z" id="Path"></path>
                            </g>
                        </g>
                    </g>
                </g>
            </g>
        </g>
    </g>
</svg>