<?xml version="1.0" encoding="UTF-8"?>
<svg width="140px" height="164px" viewBox="0 0 140 164" version="1.1" xmlns="http://www.w3.org/2000/svg" xmlns:xlink="http://www.w3.org/1999/xlink">
    <!-- Generator: Sketch 43.2 (39069) - http://www.bohemiancoding.com/sketch -->
    <title>Group</title>
    <desc>Created with Sketch.</desc>
    <defs></defs>
    <g id="Page-1" stroke="none" stroke-width="1" fill="none" fill-rule="evenodd">
        <g id="Logo-Vertical-Copy" transform="translate(-86.000000, -32.000000)" fill="#FFFFFF">
            <g id="Logo" transform="translate(75.000000, 25.000000)">
                <g transform="translate(0.000000, 1.000000)" id="Group">
                    <g transform="translate(11.000000, 0.000000)">
                        <g id="Group-2" transform="translate(0.351045, 107.865473)">
                            <path d="M112.858109,46.3434826 L100.03996,15.8928557 L115.445811,15.8928557 L120.139781,32.5624677 L120.380497,32.5624677 L124.532855,15.8928557 L139.397094,15.8928557 L126.398408,49.472796 C125.636135,51.4386566 124.773577,53.1938629 123.810706,54.7384677 C122.847836,56.2830724 121.724504,57.5969697 120.440676,58.680199 C119.156849,59.7634283 117.642357,60.5858678 115.897154,61.1475423 C114.151951,61.7092167 112.115912,61.9900498 109.788975,61.9900498 C109.066822,61.9900498 108.32462,61.9599605 107.562348,61.8997811 C106.800076,61.8396017 106.067904,61.7593637 105.365811,61.6590647 C104.663718,61.5587657 104.011784,61.4584682 103.40999,61.3581692 C102.808196,61.2578701 102.306708,61.1475429 101.905512,61.0271841 L103.650706,49.5931542 C104.172261,49.7937522 104.804135,49.964258 105.546348,50.1046766 C106.288561,50.2450952 106.960554,50.3153035 107.562348,50.3153035 C109.086893,50.3153035 110.220255,50.0043812 110.962467,49.3825274 C111.70468,48.7606735 112.256316,47.9683232 112.617393,47.0054527 L112.858109,46.3434826 Z" id="Path"></path>
                            <path d="M104.346109,11.5599602 C103.985033,11.3994818 103.563783,11.269095 103.082348,11.168796 C102.600913,11.068497 102.119485,11.0183483 101.63805,11.0183483 C100.273983,11.0183483 99.3211567,11.4395978 98.7795421,12.2821095 C98.2379274,13.1246211 97.9671242,14.1877747 97.9671242,15.471602 L97.9671242,15.8928557 L104.647005,15.8928557 L107.990288,25.822408 L97.9671242,25.822408 L97.9671242,47.5470647 L84.1259301,47.5470647 L84.1259301,25.822408 L78.7098107,25.822408 L78.7098107,15.8928557 L84.1259301,15.8928557 L84.1259301,15.1707065 C84.1259301,13.2048459 84.3566144,11.3192528 84.8179898,9.51387065 C85.2793653,7.70848849 86.0717156,6.11375816 87.1950645,4.72963184 C88.3184134,3.34550552 89.8329057,2.25226272 91.7385869,1.44987065 C93.644268,0.647478575 96.0413784,0.246288557 98.9299898,0.246288557 C99.8527407,0.246288557 100.925924,0.31649681 102.149572,0.456915423 C103.37322,0.597334035 104.406284,0.828018296 105.248796,1.14897512 L104.346109,11.5599602 Z" id="Path"></path>
                            <path d="M81.3576914,11.5599602 C80.996615,11.3994818 80.5753655,11.269095 80.0939302,11.168796 C79.612495,11.068497 79.1310669,11.0183483 78.6496317,11.0183483 C77.2855652,11.0183483 76.3327389,11.4395978 75.7911242,12.2821095 C75.2495096,13.1246211 74.9787063,14.1877747 74.9787063,15.471602 L74.9787063,15.8928557 L81.6585869,15.8928557 L81.6585869,25.822408 L74.9787063,25.822408 L74.9787063,47.5470647 L61.1375123,47.5470647 L61.1375123,25.822408 L55.7213929,25.822408 L55.7213929,15.8928557 L61.1375123,15.8928557 L61.1375123,15.1707065 C61.1375123,13.2048459 61.3681966,11.3192528 61.829572,9.51387065 C62.2909474,7.70848849 63.0832977,6.11375816 64.2066466,4.72963184 C65.3299955,3.34550552 66.8444878,2.25226272 68.750169,1.44987065 C70.6558502,0.647478575 73.0529605,0.246288557 75.941572,0.246288557 C76.8643229,0.246288557 77.9375062,0.31649681 79.1611541,0.456915423 C80.384802,0.597334035 81.4178663,0.828018296 82.260378,1.14897512 L81.3576914,11.5599602 Z" id="Path"></path>
                            <path d="M42.7249353,27.4472438 C42.7249353,26.4843733 42.3939535,25.772261 41.73198,25.3108856 C41.0700066,24.8495101 40.1974183,24.6188259 39.114189,24.6188259 C37.8303617,24.6188259 36.6167619,24.8896291 35.4733532,25.4312438 C34.3299445,25.9728584 33.3169397,26.6047327 32.4343084,27.3268856 L25.5137114,20.4664677 C27.4394523,18.6209659 29.7262354,17.1967413 32.3741293,16.1937512 C35.0220231,15.1907612 37.7501152,14.6892736 40.5584875,14.6892736 C43.5674578,14.6892736 46.0548359,15.1105232 48.0206964,15.9530348 C49.986557,16.7955465 51.5411683,17.9589976 52.684577,19.4434229 C53.8279857,20.9278482 54.6303658,22.6529653 55.0917412,24.6188259 C55.5531167,26.5846864 55.7838009,28.6708745 55.7838009,30.8774527 L55.7838009,47.5470647 L43.2063681,47.5470647 L43.2063681,45.0195423 L43.0860099,45.0195423 C42.2836178,46.2231304 41.1402263,47.0856889 39.6558009,47.6072438 C38.1713756,48.1287986 36.7270915,48.3895721 35.3229054,48.3895721 C34.0791977,48.3895721 32.8054194,48.2090366 31.5015323,47.8479602 C30.1976452,47.4868838 29.0141346,46.9051582 27.9509651,46.1027662 C26.8877956,45.3003741 26.0152073,44.2572801 25.3331741,42.9734527 C24.6511408,41.6896254 24.3101293,40.1049249 24.3101293,38.2193035 C24.3101293,36.0127253 24.8818251,34.2174 26.0252338,32.8332736 C27.1686425,31.4491473 28.6229563,30.3659343 30.3882188,29.583602 C32.1534814,28.8012697 34.1293422,28.2696929 36.3158606,27.9888557 C38.502379,27.7080185 40.6387159,27.567602 42.7249353,27.567602 L42.7249353,27.4472438 Z M42.8452935,34.4280199 C40.7991937,34.4280199 39.1543146,34.6486744 37.9106069,35.08999 C36.6668992,35.5313057 36.0450547,36.3537452 36.0450547,37.5573333 C36.0450547,37.998649 36.1453522,38.3697497 36.3459502,38.6706468 C36.5465482,38.9715438 36.8073217,39.2222876 37.1282785,39.4228856 C37.4492354,39.6234836 37.8002766,39.7739298 38.1814129,39.8742289 C38.5625491,39.9745279 38.9135904,40.0246766 39.2345472,40.0246766 C40.5584941,40.0246766 41.6216477,39.6034271 42.4240397,38.7609154 C43.2264318,37.9184037 43.6276218,36.8351907 43.6276218,35.5112438 L43.6276218,34.4280199 L42.8452935,34.4280199 Z" id="Combined-Shape"></path>
                            <path d="M16.9705075,48.3895721 C12.7178295,48.3895721 9.56848784,47.4768648 7.52238806,45.6514229 C5.47628828,43.8259809 4.45325373,40.9875615 4.45325373,37.1360796 L4.45325373,25.822408 L0,25.822408 L0,15.8928557 L4.39307463,15.8928557 L4.39307463,8.79172139 L17.873194,8.79172139 L17.873194,15.8928557 L24.7336119,15.8928557 L24.7336119,25.822408 L17.873194,25.822408 L17.873194,34.2474826 C17.873194,35.7720275 18.2041758,36.8050918 18.8661493,37.3467065 C19.5281227,37.8883211 20.44083,38.1591244 21.6042985,38.1591244 C22.0456141,38.1591244 22.5069827,38.1190054 22.9884179,38.0387662 C23.4698532,37.958527 24.7318499,37.4269457 25.0126871,37.3467065 L29.1062874,45.6514229 C28.3841346,45.9723797 22.3966632,47.8880786 21.0927761,48.0886766 C19.788889,48.2892746 18.4148132,48.3895721 16.9705075,48.3895721 Z" id="Path"></path>
                        </g>
                        <path d="M63.0704559,29.3066667 L77.593263,29.3066667 C82.409545,29.3066667 84.8170863,29.3066667 87.4097308,30.1511767 C90.2402509,31.2127877 92.4694854,33.509855 93.4997468,36.4265044 C94.3193183,39.0976279 94.3193183,41.5792517 94.3193183,46.5416752 L94.3193183,61.5063934 C94.3193183,66.4692289 94.3193183,68.9500287 93.4997468,71.6215642 C92.4694854,74.5382136 90.2402509,76.8352809 87.4097308,77.8964799 C84.8170863,78.7414019 82.409545,78.7414019 77.593263,78.7414019 L63.0704559,78.7414019 C58.254174,78.7414019 55.8462329,78.7414019 53.2539882,77.8964799 C50.423468,76.8352809 48.1942335,74.5382136 47.1639722,71.6215642 C46.3444007,68.9500287 46.3444007,66.4692289 46.3444007,61.5063934 L46.3444007,46.5416752 C46.3444007,41.5792517 46.3444007,39.0976279 47.1639722,36.4265044 C48.1942335,33.509855 50.423468,31.2127877 53.2539882,30.1511767 C55.8462329,29.3066667 58.254174,29.3066667 63.0704559,29.3066667 Z M118.223857,34.7541902 L115.110878,43.8843034 C114.890307,44.5535042 115.015633,45.2953209 115.44172,45.8504318 L122.103738,54.5292849 L115.44172,63.1976468 C115.000593,63.7579104 114.880285,64.5100989 115.110878,65.1896715 L118.223857,74.3197847 L98.5742789,60.9001783 L98.5742789,48.1751246 L118.223857,34.7541902 Z M22.7196165,34.7847346 L42.3653452,48.1737966 L42.3653452,60.8988503 L22.7196165,74.2879123 L25.8325963,65.1888747 C26.0631889,64.5093021 25.9428814,63.7571401 25.501754,63.19685 L18.8397358,54.5284881 L25.501754,45.8496349 C25.9278413,45.2945639 26.0531664,44.5527472 25.8325963,43.8835066 L22.7196165,34.7847346 Z" id="Combined-Shape" transform="translate(70.471737, 54.024034) rotate(-45.000000) translate(-70.471737, -54.024034) "></path>
                    </g>
                </g>
            </g>
        </g>
    </g>
</svg>