<?xml version="1.0" encoding="UTF-8"?>
<svg width="114px" height="114px" viewBox="0 0 114 114" version="1.1" xmlns="http://www.w3.org/2000/svg" xmlns:xlink="http://www.w3.org/1999/xlink">
    <!-- Generator: Sketch 46 (44423) - http://www.bohemiancoding.com/sketch -->
    <title>mark</title>
    <desc>Created with Sketch.</desc>
    <defs></defs>
    <g id="Website" stroke="none" stroke-width="1" fill="none" fill-rule="evenodd">
        <g id="Website---Desktop-Copy-3" transform="translate(-273.000000, -174.000000)" fill="#FFFFFF">
            <g id="Header">
                <g id="Content-v1" transform="translate(270.000000, 171.000000)">
                    <g id="Logo">
                        <g id="Brand-/-Mark-/-White">
                            <path d="M50.6297013,30.68 L68.0350175,30.68 C73.8072425,30.68 76.6926363,30.68 79.7998728,31.6539872 C83.1921989,32.8783604 85.8638953,35.5276055 87.0986445,38.8914247 C88.0808859,41.9720749 88.0808859,44.8341719 88.0808859,50.5574157 L88.0808859,67.8164687 C88.0808859,73.5401876 88.0808859,76.4013344 87.0986445,79.4824597 C85.8638953,82.8462789 83.1921989,85.495524 79.7998728,86.7194221 C76.6926363,87.6938844 73.8072425,87.6938844 68.0350175,87.6938844 L50.6297013,87.6938844 C44.8574763,87.6938844 41.9716034,87.6938844 38.864846,86.7194221 C35.4725199,85.495524 32.8008235,82.8462789 31.5660743,79.4824597 C30.583833,76.4013344 30.583833,73.5401876 30.583833,67.8164687 L30.583833,50.5574157 C30.583833,44.8341719 30.583833,41.9720749 31.5660743,38.8914247 C32.8008235,35.5276055 35.4725199,32.8783604 38.864846,31.6539872 C41.9716034,30.68 44.8574763,30.68 50.6297013,30.68 Z M116.730035,36.9627175 L112.999186,47.4926256 C112.734837,48.2644257 112.885036,49.119975 113.395694,49.7601934 L121.38,59.769656 L113.395694,69.7670187 C112.867011,70.4131798 112.722825,71.2806911 112.999186,72.0644532 L116.730035,82.5943613 L93.1803776,67.1173109 L93.1803776,52.4412995 L116.730035,36.9627175 Z M2.26996531,36.9979448 L25.8150085,52.4397678 L25.8150085,67.1157793 L2.26996531,82.5576023 L6.0008142,72.0635342 C6.27717509,71.2797721 6.13298881,70.4122915 5.60430577,69.7660997 L-2.38,59.768737 L5.60430577,49.7592744 C6.1149636,49.119102 6.26516341,48.2635527 6.0008142,47.4917066 L2.26996531,36.9979448 Z" id="Mark" transform="translate(59.500000, 59.186942) rotate(-45.000000) translate(-59.500000, -59.186942) "></path>
                        </g>
                    </g>
                </g>
            </g>
        </g>
    </g>
</svg>