<?xml version="1.0" encoding="UTF-8"?>
<svg width="96px" height="97px" viewBox="0 0 96 97" version="1.1" xmlns="http://www.w3.org/2000/svg" xmlns:xlink="http://www.w3.org/1999/xlink">
    <!-- Generator: Sketch 43.2 (39069) - http://www.bohemiancoding.com/sketch -->
    <title>Combined Shape</title>
    <desc>Created with Sketch.</desc>
    <defs></defs>
    <g id="Page-1" stroke="none" stroke-width="1" fill="none" fill-rule="evenodd">
        <g id="Logo-Vertical-Copy" transform="translate(-109.000000, -32.000000)" fill="#F12B4C">
            <g id="Logo" transform="translate(75.000000, 25.000000)">
                <g transform="translate(0.000000, 1.000000)" id="Group">
                    <g transform="translate(11.000000, 0.000000)">
                        <path d="M63.0704559,29.3066667 L77.593263,29.3066667 C82.409545,29.3066667 84.8170863,29.3066667 87.4097308,30.1511767 C90.2402509,31.2127877 92.4694854,33.509855 93.4997468,36.4265044 C94.3193183,39.0976279 94.3193183,41.5792517 94.3193183,46.5416752 L94.3193183,61.5063934 C94.3193183,66.4692289 94.3193183,68.9500287 93.4997468,71.6215642 C92.4694854,74.5382136 90.2402509,76.8352809 87.4097308,77.8964799 C84.8170863,78.7414019 82.409545,78.7414019 77.593263,78.7414019 L63.0704559,78.7414019 C58.254174,78.7414019 55.8462329,78.7414019 53.2539882,77.8964799 C50.423468,76.8352809 48.1942335,74.5382136 47.1639722,71.6215642 C46.3444007,68.9500287 46.3444007,66.4692289 46.3444007,61.5063934 L46.3444007,46.5416752 C46.3444007,41.5792517 46.3444007,39.0976279 47.1639722,36.4265044 C48.1942335,33.509855 50.423468,31.2127877 53.2539882,30.1511767 C55.8462329,29.3066667 58.254174,29.3066667 63.0704559,29.3066667 Z M118.223857,34.7541902 L115.110878,43.8843034 C114.890307,44.5535042 115.015633,45.2953209 115.44172,45.8504318 L122.103738,54.5292849 L115.44172,63.1976468 C115.000593,63.7579104 114.880285,64.5100989 115.110878,65.1896715 L118.223857,74.3197847 L98.5742789,60.9001783 L98.5742789,48.1751246 L118.223857,34.7541902 Z M22.7196165,34.7847346 L42.3653452,48.1737966 L42.3653452,60.8988503 L22.7196165,74.2879123 L25.8325963,65.1888747 C26.0631889,64.5093021 25.9428814,63.7571401 25.501754,63.19685 L18.8397358,54.5284881 L25.501754,45.8496349 C25.9278413,45.2945639 26.0531664,44.5527472 25.8325963,43.8835066 L22.7196165,34.7847346 Z" id="Combined-Shape" transform="translate(70.471737, 54.024034) rotate(-45.000000) translate(-70.471737, -54.024034) "></path>
                    </g>
                </g>
            </g>
        </g>
    </g>
</svg>