<?xml version="1.0" encoding="UTF-8"?>
<svg width="171px" height="115px" viewBox="0 0 171 115" version="1.1" xmlns="http://www.w3.org/2000/svg" xmlns:xlink="http://www.w3.org/1999/xlink">
    <!-- Generator: Sketch 41.2 (35397) - http://www.bohemiancoding.com/sketch -->
    <title>mark</title>
    <desc>Created with Sketch.</desc>
    <defs></defs>
    <g id="Icon" stroke="none" stroke-width="1" fill="none" fill-rule="evenodd">
        <g id="Artboard-2" transform="translate(-5.000000, -32.000000)" fill="#F12B4C">
            <path d="M88.1210795,72.8106442 C79.3127822,67.9881864 68.1544719,56.8434796 63.3456176,48.0215787 L54.5781309,32 L45.8106442,48.0215787 C40.9881864,56.8298761 29.8400788,67.9881864 21.0215787,72.8106442 L5,81.5781309 L21.0215787,90.3456176 C29.8264752,95.1680754 40.9881864,106.316183 45.8106442,115.134683 L54.5781309,131.156262 L63.3456176,115.134683 C68.1680754,106.329787 79.3127822,95.1680754 88.1210795,90.3456176 L104.142658,81.5781309 L88.1210795,72.8106442 Z M142.123764,80.2891947 L147.211491,89.6042243 L152.299218,80.2891947 C155.101549,75.1742607 161.573437,68.69217 166.701975,65.8898391 L176,60.8021121 L166.701975,55.7143852 C161.587041,52.9120543 155.101549,46.4401663 152.299218,41.3116286 L147.211491,32 L142.123764,41.3116286 C139.321434,46.4265627 132.849546,52.9120543 127.724409,55.7143852 L118.422983,60.8021121 L127.724409,65.8898391 C132.839343,68.69217 139.321434,75.164058 142.123764,80.2891947 L142.123764,80.2891947 Z M113.760367,140.484895 C115.726079,136.896959 120.269664,132.353374 123.8576,130.387661 L130.380502,126.813329 L123.8576,123.2526 C120.269664,121.286888 115.726079,116.743303 113.760367,113.155367 L110.199638,106.632466 L106.625306,113.155367 C104.659593,116.743303 100.116008,121.286888 96.5314731,123.2526 L90.0085718,126.813329 L96.5314731,130.387661 C100.116008,132.353374 104.659593,136.896959 106.625306,140.484895 L110.199638,147.007796 L113.760367,140.484895 Z" id="mark"></path>
        </g>
    </g>
</svg>