<?xml version="1.0" encoding="UTF-8"?>
<svg width="47px" height="47px" viewBox="0 0 47 47" version="1.1" xmlns="http://www.w3.org/2000/svg" xmlns:xlink="http://www.w3.org/1999/xlink">
    <!-- Generator: Sketch 46 (44423) - http://www.bohemiancoding.com/sketch -->
    <title>mark-red</title>
    <desc>Created with Sketch.</desc>
    <defs></defs>
    <g id="Website" stroke="none" stroke-width="1" fill="none" fill-rule="evenodd">
        <g id="Website---Desktop-Copy-3" transform="translate(-292.000000, -3155.000000)" fill="#F12B4C">
            <g id="Footer" transform="translate(291.000000, 3154.000000)">
                <g id="Group-21">
                    <g id="Brand-/-Mark-/-Red">
                        <path d="M20.8475241,12.74 L28.014419,12.74 C30.3912175,12.74 31.5793208,12.74 32.8587712,13.1444523 C34.2556113,13.6528785 35.3557216,14.7529887 35.8641478,16.1498289 C36.2686001,17.429082 36.2686001,18.6175799 36.2686001,20.9941811 L36.2686001,28.161076 C36.2686001,30.5378745 36.2686001,31.7259778 35.8641478,33.0054282 C35.3557216,34.4022683 34.2556113,35.5023786 32.8587712,36.0106075 C31.5793208,36.4152571 30.3912175,36.4152571 28.014419,36.4152571 L20.8475241,36.4152571 C18.4707256,36.4152571 17.2824249,36.4152571 16.0031719,36.0106075 C14.6063317,35.5023786 13.5062214,34.4022683 12.9977953,33.0054282 C12.593343,31.7259778 12.593343,30.5378745 12.593343,28.161076 L12.593343,20.9941811 C12.593343,18.6175799 12.593343,17.429082 12.9977953,16.1498289 C13.5062214,14.7529887 14.6063317,13.6528785 16.0031719,13.1444523 C17.2824249,12.74 18.4707256,12.74 20.8475241,12.74 Z M48.0653084,15.3489251 L46.5290765,19.721514 C46.4202268,20.0420073 46.4820738,20.3972778 46.6923447,20.6631312 L49.98,24.8196029 L46.6923447,28.9710501 C46.4746517,29.2393713 46.4152808,29.599609 46.5290765,29.9250696 L48.0653084,34.2976585 L38.3683908,27.8707478 L38.3683908,21.7764718 L48.0653084,15.3489251 Z M0.934691599,15.3635534 L10.6297094,21.7758358 L10.6297094,27.8701118 L0.934691599,34.2823942 L2.4709235,29.9246879 C2.58471915,29.5992274 2.52534833,29.2390024 2.30765532,28.9706685 L-0.98,24.8192213 L2.30765532,20.6627496 C2.51792619,20.3969152 2.57977317,20.0416448 2.4709235,19.7211324 L0.934691599,15.3635534 Z" id="Mark" transform="translate(24.500000, 24.577629) rotate(-45.000000) translate(-24.500000, -24.577629) "></path>
                    </g>
                </g>
            </g>
        </g>
    </g>
</svg>