<?xml version="1.0" encoding="UTF-8"?>
<svg width="36px" height="36px" viewBox="0 0 36 36" version="1.1" xmlns="http://www.w3.org/2000/svg" xmlns:xlink="http://www.w3.org/1999/xlink">
    <!-- Generator: Sketch 46 (44423) - http://www.bohemiancoding.com/sketch -->
    <title>twitter</title>
    <desc>Created with Sketch.</desc>
    <defs></defs>
    <g id="Website" stroke="none" stroke-width="1" fill="none" fill-rule="evenodd">
        <g id="Website---Desktop-Copy-3" transform="translate(-1003.000000, -3158.000000)" fill="#F12B4C">
            <g id="Footer" transform="translate(291.000000, 3154.000000)">
                <g id="Social" transform="translate(712.000000, 4.000000)">
                    <path d="M12.3439885,0 L23.0619589,0 C26.616421,0 28.3932095,0 30.3066059,0.604851603 C32.3955568,1.36519432 34.0407531,3.01039068 34.8010959,5.09934158 C35.4059475,7.01244295 35.4059475,8.78982151 35.4059475,12.3439885 L35.4059475,23.0619589 C35.4059475,26.616421 35.4059475,28.3932095 34.8010959,30.3066059 C34.0407531,32.3955568 32.3955568,34.0407531 30.3066059,34.8008008 C28.3932095,35.4059475 26.616421,35.4059475 23.0619589,35.4059475 L12.3439885,35.4059475 C8.78952646,35.4059475 7.01244295,35.4059475 5.09934158,34.8008008 C3.01039068,34.0407531 1.36519432,32.3955568 0.604851603,30.3066059 C0,28.3932095 0,26.616421 0,23.0619589 L0,12.3439885 C0,8.78982151 0,7.01244295 0.604851603,5.09934158 C1.36519432,3.01039068 3.01039068,1.36519432 5.09934158,0.604851603 C7.01244295,0 8.78952646,0 12.3439885,0 Z M29.6470588,10.7165775 C28.788153,11.096668 27.8700123,11.3533525 26.9025093,11.4718223 C27.8897573,10.8794735 28.6499383,9.94158782 29.0053476,8.82599753 C28.0822707,9.3739202 27.0604689,9.77375566 25.9695599,9.98601399 C25.0958453,9.05306458 23.8519128,8.47058824 22.479638,8.47058824 C19.8387495,8.47058824 17.7013575,10.6129165 17.7013575,13.253805 C17.7013575,13.6289593 17.7408474,13.9942411 17.8247635,14.3447141 C13.8510901,14.1472645 10.3266146,12.2418758 7.97202797,9.34430276 C7.56232003,10.0501851 7.3253805,10.8745372 7.3253805,11.7482517 C7.3253805,13.4068285 8.17441382,14.8728918 9.45783628,15.7317976 C8.66803784,15.7120527 7.92760181,15.4948581 7.28589058,15.1345125 C7.28589058,15.1542575 7.28589058,15.1740025 7.28589058,15.1937474 C7.28589058,17.5137803 8.93459482,19.4438503 11.1213492,19.8831756 C10.7215138,19.9917729 10.2969971,20.0510078 9.86260798,20.0510078 C9.55656109,20.0510078 9.25545043,20.0213904 8.96421226,19.9621555 C9.57136981,21.862608 11.3385438,23.2447552 13.4315097,23.2842452 C11.7976142,24.5676676 9.73426573,25.3327849 7.49321267,25.3327849 C7.10818593,25.3327849 6.72809543,25.3081037 6.35294118,25.2636775 C8.46071575,26.6359523 10.973262,27.4257507 13.6684492,27.4257507 C22.4697655,27.4257507 27.2776635,20.1349239 27.2776635,13.8116002 C27.2776635,13.6042781 27.2727273,13.396956 27.2628548,13.1945701 C28.1958042,12.5183052 29.0053476,11.6791444 29.6470588,10.7165775 Z" id="twitter"></path>
                </g>
            </g>
        </g>
    </g>
</svg>