<?xml version="1.0" encoding="UTF-8"?>
<svg width="30px" height="25px" viewBox="0 0 30 25" version="1.1" xmlns="http://www.w3.org/2000/svg" xmlns:xlink="http://www.w3.org/1999/xlink">
    <!-- Generator: Sketch 43.2 (39069) - http://www.bohemiancoding.com/sketch -->
    <title>Shape</title>
    <desc>Created with Sketch.</desc>
    <defs></defs>
    <g id="Page-1" stroke="none" stroke-width="1" fill="none" fill-rule="evenodd">
        <g id="Artboard" transform="translate(-40.000000, -25.000000)" fill-rule="nonzero" fill="#FFFFFF">
            <g id="ChewTaffy" transform="translate(40.000000, 22.000000)">
                <g id="social-twitter" transform="translate(0.000000, 3.000000)">
                    <g id="Layer_1">
                        <path d="M29.9365751,2.8858351 C28.832981,3.37420719 27.653277,3.70401691 26.410148,3.85623679 C27.6786469,3.09513742 28.6553911,1.89006342 29.1120507,0.456659619 C27.9260042,1.16067653 26.6131078,1.6744186 25.2114165,1.94714588 C24.0887949,0.748414376 22.4904863,0 20.7272727,0 C17.3340381,0 14.5877378,2.75264271 14.5877378,6.14587738 C14.5877378,6.62790698 14.6384778,7.09725159 14.7463002,7.54756871 C9.64059197,7.29386892 5.11205074,4.84566596 2.08668076,1.12262156 C1.5602537,2.02959831 1.25581395,3.08879493 1.25581395,4.21141649 C1.25581395,6.34249471 2.34672304,8.22621564 3.99577167,9.32980973 C2.98097252,9.30443975 2.02959831,9.02536998 1.205074,8.56236786 L1.205074,8.6384778 C1.205074,11.6194503 3.32346723,14.0993658 6.13319239,14.6638478 C5.61945032,14.8033827 5.07399577,14.8794926 4.51585624,14.8794926 C4.12262156,14.8794926 3.73572939,14.8414376 3.3615222,14.7653277 C4.14164905,17.2071882 6.41226216,18.9830867 9.10147992,19.0338266 C7.00211416,20.6828753 4.35095137,21.6659619 1.47145877,21.6659619 C0.976744186,21.6659619 0.488372093,21.6342495 0.00634249471,21.577167 C2.71458774,23.3403805 5.94291755,24.3551797 9.40591966,24.3551797 C20.7145877,24.3551797 26.8921776,14.987315 26.8921776,6.86257928 C26.8921776,6.5961945 26.8858351,6.32980973 26.8731501,6.06976744 C28.0718816,5.20084567 29.1120507,4.12262156 29.9365751,2.8858351 Z" id="Shape"></path>
                    </g>
                </g>
            </g>
        </g>
    </g>
</svg>